<?xml version="1.0" standalone="no"?>
<!DOCTYPE svg PUBLIC "-//W3C//DTD SVG 20010904//EN"
 "http://www.w3.org/TR/2001/REC-SVG-20010904/DTD/svg10.dtd">
<svg version="1.0" xmlns="http://www.w3.org/2000/svg"
 width="31.88" height="32" viewBox="0 0 2000.000000 2000.000000"
 preserveAspectRatio="xMidYMid meet">

<g transform="translate(0.000000,2000.000000) scale(0.100000,-0.100000)"
fill="#000000" stroke="none">
<path d="M0 10000 l0 -10000 10000 0 10000 0 0 10000 0 10000 -10000 0 -10000
0 0 -10000z m9010 3985 c520 -1037 947 -1885 950 -1885 3 0 363 847 801 1883
l794 1882 763 3 c657 2 762 0 762 -12 0 -17 -15 -22 -90 -31 -82 -11 -217 -52
-283 -87 -70 -38 -139 -111 -155 -166 -18 -61 -16 -4342 2 -4394 32 -88 128
-166 256 -206 36 -11 76 -24 90 -28 14 -4 232 -10 485 -13 386 -5 460 -8 460
-20 0 -9 -27 -23 -67 -37 -242 -81 -389 -225 -540 -529 -71 -142 -43 -71 -442
-1095 -418 -1074 -1168 -2992 -1188 -3040 -13 -29 -70 -73 -353 -270 -186
-129 -351 -243 -367 -254 l-29 -18 7 78 6 79 -526 1353 c-289 745 -530 1360
-534 1368 -5 9 -172 -396 -485 -1178 l-478 -1193 -365 -253 c-201 -140 -367
-252 -369 -250 -3 2 0 34 6 71 l11 67 -847 2182 c-1026 2644 -967 2495 -1019
2593 -58 109 -129 216 -187 280 -27 29 -49 55 -49 59 0 3 215 7 478 8 l478 3
75 37 c136 67 212 178 264 383 60 234 58 182 62 2068 l4 1727 -47 90 c-125
243 -305 460 -509 615 -18 13 51 14 605 14 l625 0 945 -1884z"/>
<path d="M11153 14545 c-221 -523 -656 -1550 -966 -2282 l-565 -1333 579 0
c505 0 579 -2 579 -15 0 -16 -17 -21 -105 -30 -226 -23 -400 -108 -470 -229
-63 -110 -58 -286 14 -497 40 -118 1353 -3602 1361 -3611 3 -5 46 94 94 220
48 125 366 943 706 1817 339 875 628 1628 641 1675 33 119 34 293 2 362 -45
98 -131 167 -283 224 l-75 29 -822 3 c-793 2 -823 3 -823 21 0 15 13 20 73 29
39 6 113 23 162 37 145 42 224 97 273 190 l27 50 3 1715 c1 943 1 1908 0 2145
l-3 429 -402 -949z"/>
<path d="M7534 13335 c3 -1599 2 -1584 46 -1816 66 -350 210 -546 433 -590 45
-9 57 -16 57 -30 0 -17 -9 -19 -94 -19 -283 0 -501 -121 -547 -303 -17 -70 -6
-253 21 -347 12 -41 318 -860 680 -1820 361 -960 668 -1773 680 -1808 13 -35
26 -59 30 -55 4 4 206 507 448 1117 l440 1108 -324 837 c-179 460 -347 881
-374 936 -56 115 -124 224 -198 312 -29 34 -52 65 -52 68 0 3 162 5 360 5 198
0 360 3 359 8 0 4 -443 891 -984 1972 l-984 1965 3 -1540z"/>
</g>
</svg>
